<svg width="16.000000" height="16.000000" viewBox="0 0 16 16" fill="none" xmlns="http://www.w3.org/2000/svg" xmlns:xlink="http://www.w3.org/1999/xlink">
	<desc>
			Created with Pixso.
	</desc>
	<defs/>
	<path id="Vector" d="M8.07 1C5.27 1 3 3.27 3 6.07C3 9.53 7.53 14.63 7.73 14.84C7.91 15.05 8.22 15.05 8.4 14.84C8.6 14.63 13.14 9.53 13.14 6.07C13.14 3.27 10.86 1 8.07 1ZM8.07 8.62C6.66 8.62 5.51 7.47 5.51 6.07C5.51 4.66 6.66 3.51 8.07 3.51C9.47 3.51 10.62 4.66 10.62 6.07C10.62 7.47 9.47 8.62 8.07 8.62Z" fill="#555555" fill-opacity="1.000000" fill-rule="nonzero"/>
</svg>
