<svg width="16.000000" height="16.000000" viewBox="0 0 16 16" fill="none" xmlns="http://www.w3.org/2000/svg" xmlns:xlink="http://www.w3.org/1999/xlink">
	<desc>
			Created with Pixso.
	</desc>
	<defs/>
	<path id="Vector" d="M14.68 12.07L12.52 9.9C12.09 9.47 11.38 9.48 10.93 9.93L9.84 11.02C9.77 10.98 9.7 10.94 9.63 10.9C8.94 10.52 8 10 7.01 9C6.01 8.01 5.49 7.06 5.11 6.37C5.07 6.3 5.03 6.23 4.99 6.16L5.72 5.43L6.08 5.07C6.53 4.62 6.54 3.91 6.11 3.48L3.95 1.31C3.52 0.88 2.8 0.89 2.36 1.34L1.75 1.95L1.76 1.97C1.56 2.23 1.39 2.53 1.26 2.86C1.15 3.17 1.07 3.46 1.04 3.76C0.75 6.13 1.84 8.3 4.77 11.24C8.83 15.31 12.1 15 12.24 14.98C12.55 14.95 12.84 14.87 13.14 14.76C13.46 14.63 13.76 14.46 14.02 14.26L14.04 14.27L14.65 13.66C15.1 13.22 15.11 12.5 14.68 12.07Z" fill="#555555" fill-opacity="1.000000" fill-rule="nonzero"/>
</svg>
